<svg xmlns="http://www.w3.org/2000/svg" width="42" height="42" viewBox="0 0 42 42" fill="none"><path d="M1.5 10.5C1.5 27.068 14.932 40.5 31.5 40.5H36C37.1935 40.5 38.3381 40.0259 39.182 39.182C40.0259 38.3381 40.5 37.1935 40.5 36V33.256C40.5 32.224 39.798 31.324 38.796 31.074L29.95 28.862C29.07 28.642 28.146 28.972 27.604 29.696L25.664 32.282C25.1 33.034 24.126 33.366 23.244 33.042C19.9698 31.8383 16.9963 29.9372 14.5296 27.4704C12.0628 25.0037 10.1617 22.0302 8.958 18.756C8.634 17.874 8.966 16.9 9.718 16.336L12.304 14.396C13.03 13.854 13.358 12.928 13.138 12.05L10.926 3.204C10.8043 2.71739 10.5234 2.28541 10.1281 1.97667C9.73277 1.66794 9.2456 1.50017 8.744 1.5H6C4.80653 1.5 3.66193 1.97411 2.81802 2.81802C1.97411 3.66193 1.5 4.80653 1.5 6V10.5Z" stroke="#FAFAFA" stroke-width="2.5" stroke-linecap="round" stroke-linejoin="round"></path></svg>