<svg xmlns="http://www.w3.org/2000/svg" width="386.603" height="389.17" viewBox="0 0 386.603 389.17"><g transform="matrix(0.574, 0.819, -0.819, 0.574, 227.081, -27.561)"><path d="M1017.934-1279.522c-1.149.6-1.7,1.317-6.463,8.426-3.878,5.769-4.022,6.032-4.165,7.492a3.6,3.6,0,0,0,.215,2.226c.5.981,1.053,1.245,2.585,1.245,2.178-.024,4.285-1.245,7.684-4.524,5.027-4.835,6.391-7.4,5.578-10.533-.67-2.657-2.49-4.835-4-4.812A5.009,5.009,0,0,0,1017.934-1279.522Z" transform="translate(-766.158 1280.001)" fill="#f2eee7"></path><path d="M287.26-1202.5c-4.859,2.992-14.77,20.9-25.853,46.8a57.414,57.414,0,0,1-2.873,6.08l-.527.6-.359-.934c-.407-.981-.622-2.059-1.269-6.152-.5-3.208-1.317-4.716-2.609-4.716-1.245,0-3.327,3.327-4.692,7.54-.814,2.49-1.747,4.429-2.178,4.429-.144,0-.479-.5-.766-1.149a7.435,7.435,0,0,1-.527-3.639,15.975,15.975,0,0,1,.335-3.615c.646-2.106,0-2.9-2.825-3.423-2.154-.407-3.734-1.365-3.519-2.131.455-1.676.91-10.509.79-15.607-.168-7.78-.91-11.083-2.729-12.161a1.328,1.328,0,0,0-1.58-.1c-3.088,1.293-5.7,11.538-6.607,25.925-.192,3.208-.431,3.854-1.747,4.644-.718.431-.766.431-1.364.024a8.933,8.933,0,0,0-3.136-1.46,1.83,1.83,0,0,0-1.077.6c-.5.479-.6.814-.6,2.083a28.882,28.882,0,0,0,.359,3.662,28.306,28.306,0,0,1,.359,3.591c0,1.269-.072,1.484-.646,1.939l-.67.527-.12,4.069a24.908,24.908,0,0,1-.335,4.285c-.335.335-1.652-1.508-3.232-4.5a13.851,13.851,0,0,0-2.083-3.232c-.527-.359-.646-.359-1.7.168a3.527,3.527,0,0,0-1.724,1.6l-.551,1.053-.838-.814a11.983,11.983,0,0,1-3.088-5.338c-1.412-4.788-2.107-5.194-5-3.016a7.685,7.685,0,0,1-3.088,1.7c-.551,0-.79-.646-1.173-3.016-.335-2.011-.551-2.49-3.351-7.756-3.639-6.846-4.5-8.4-5.6-9.934-2.849-3.974-8.091-9.551-10.7-11.394-3.591-2.537-6.128-2.3-7.11.67-.551,1.7.168,5.913,1.58,9.288a39.357,39.357,0,0,0,8.833,12.831c1.269,1.1,2.3,2.561,2.3,3.256,0,.67-.886,1.125-2.729,1.388-2.849.431-3.351,2.394-1.556,6.008a46.734,46.734,0,0,0,3.04,4.955c3.926,5.6,4.357,6.248,4.357,6.367a3.433,3.433,0,0,1-.981.694,2.943,2.943,0,0,0-1.771,2.8,5.549,5.549,0,0,0,1.556,2.154c1.676,1.676,2.011,2.657,1.221,3.447-.575.574-1.2.622-2.49.168a6.444,6.444,0,0,1-3.519-2.944c-1.771-2.777-3.327-4.141-4.788-4.189-.886-.024-1.46.479-2.035,1.724-.287.646-.6.958-.886.958s-1.891-1.436-3.974-3.543c-4.907-4.931-7.66-6.918-9.958-7.157-.91-.12-1.077-.048-1.532.527-1.125,1.412-.383,4.189,2.609,9.886,1.508,2.921,1.7,3.4,1.58,4.285-.12,1.125-.718,2.226-1.221,2.226a40.331,40.331,0,0,1-4.046-4.5c-4.333-5.219-5.29-6.176-7.205-7.325a22.635,22.635,0,0,0-6.918-2.561,23.922,23.922,0,0,1-3.782-1.2,51.318,51.318,0,0,1-5.434-4.955c-10.461-10.509-18.528-16.4-22.885-16.733-1.412-.12-1.556-.1-2.274.551-1.053.933-1.2,2.107-.5,4.165,1.891,5.673,10.006,14.961,20.587,23.579,1.125.91,4.524,4.093,7.54,7.062,3.04,2.992,6.655,6.32,8.067,7.4,1.747,1.317,2.585,2.13,2.585,2.442a4.143,4.143,0,0,1-1.053,1.6,5.352,5.352,0,0,0-1.221,1.8c-.263,1.005,1.029,2.106,3.28,2.8,2.154.67,3.064,1.508,3.064,2.825a2.815,2.815,0,0,1-.359,1.388c-1.125,1.484.12,2.729,5.625,5.673,4.572,2.442,6.631,3.83,5.841,3.95a30.189,30.189,0,0,1-7.421-1.34c-1.173-.407-5.721-1.963-10.1-3.495-15.679-5.482-27.888-9.12-31.455-9.408-2.083-.168-2.585.048-2.585,1.1,0,1.1,1.891,2.585,7.205,5.673,3.734,2.13,18.432,9.743,24.106,12.448a22.149,22.149,0,0,1,3.83,2.059,12.107,12.107,0,0,1-1.628,1.46,8.832,8.832,0,0,0-2.011,2.178l-.455.958.646,1.843a8.708,8.708,0,0,1,.575,2.633c-.168,1.915-3.136,2.083-9.767.574a103.238,103.238,0,0,0-11.131-2.25c-12.376-1.748-22.717-.958-29.228,2.25-4.5,2.2-6.487,5.195-5.362,8.139.6,1.58,2.657,3.184,5.242,4.07,3.639,1.269,4.812,1.317,21.927,1.053l6.463-.1,4.261,1.029c4.979,1.2,6.966,1.484,9.743,1.436,3.16-.072,4.4.91,4.4,3.519a3.076,3.076,0,0,1-1.963,3.256c-3.806,1.58-6.583,3.758-7.66,6.009-.67,1.46-.67,2.154.024,2.968a2.221,2.221,0,0,0,1.747.742c1.221.12,1.7-.024,7.253-1.963a16.887,16.887,0,0,1,5.458-1.077,33.532,33.532,0,0,1,4.261-.072c1.269.144,1.317.167.934.574-.718.79-4.237,2.322-8.666,3.782-6.99,2.322-9.767,3.878-9.575,5.434.144,1.341,2.083,1.652,5.266.838a17.319,17.319,0,0,0,3.112-1.149c1.269-.67,1.293-.67,5.314-.6,4.476.072,5.242.239,3.974.886-1.436.742-3.734,1.532-8.785,2.968-12.591,3.615-19.031,6.391-21.688,9.336-1.149,1.269-1.317,2.035-.742,3.112,2.011,3.758,14.506,2.753,23.507-1.891a62.41,62.41,0,0,0,6.152-3.854,90.274,90.274,0,0,1,10.772-6.679c2.8-1.436,5.051-2.25,5.841-2.107.5.072.5.072-.072,1.269a36.262,36.262,0,0,1-5.027,6.7c-2.49,2.777-2.777,3.208-2.777,4.093,0,1.891,1.508,2.37,7.062,2.178l4.069-.144-.838.431a35.984,35.984,0,0,1-4.309,1.46c-6.607,1.891-9.192,2.992-10.652,4.548a29.625,29.625,0,0,1-3.543,2.681,38.837,38.837,0,0,0-3.3,2.37,1.214,1.214,0,0,0,0,1.891,7.472,7.472,0,0,0,3.567.024c.958-.192,1.005-.168.862.311a8.477,8.477,0,0,1-1.676,2.561,14.718,14.718,0,0,1-1.843,1.149c-5.865,3.3-12.855,10.988-13.477,14.794a1.388,1.388,0,0,0,.5,1.628,1.329,1.329,0,0,0,1.508.5c1.317-.192,3.3-1.293,6.487-3.615,2.873-2.059,4.333-3.447,4.333-4.046a4.745,4.745,0,0,1,1.8-2.3c.527,0,.455.215-.5,1.819-1.556,2.537-1.317,4.165.622,4.165,1.364,0,3.064-1.412,8.139-6.7,4.333-4.524,4.429-4.6,4.572-3.9.335,1.724,1.149,1.724,2.849,0l1.221-1.245-.144.838c-.1.455-1.388,3.4-2.9,6.559a74.072,74.072,0,0,0-3.327,7.756c-1.771,6.056-.407,11.275,2.609,10.006,1.1-.455,2.346-2.178,3.854-5.29a21.576,21.576,0,0,1,4.812-6.822l1.341-1.317-.12,1.1a31.063,31.063,0,0,1-1.245,4.022,27.77,27.77,0,0,0-1.317,4.668c-.144.934-.527,3.734-.886,6.248-.862,6.032-.934,11.993-.168,13.286a3.238,3.238,0,0,0,1.125,1.149c3.16,1.532,9.24-9.24,12.974-22.933.934-3.519,1.221-4.309,1.532-4.309.335,0,1.173,2.178,1.484,3.926.359,2.083,1.077,2.992,2.561,3.184a3.921,3.921,0,0,0,3.615-1.436,9.786,9.786,0,0,0,.742-2.2c.144-.79.742-3.327,1.317-5.625s1.1-4.668,1.2-5.266c.263-1.7.646-3.112.838-3.112.5,0,1.676,4.189,2.322,8.378a91.194,91.194,0,0,1-.024,18.432,9.613,9.613,0,0,0,.024,5.027l.479,2.274-.551,2.585c-2.274,10.509-1.388,17.762,2.3,18.863,4.069,1.221,7.9-6.152,7.9-15.177v-2.346l.718.814c1.556,1.8,3.04,1.652,4.022-.359.551-1.1.958-3.064,1.46-7.229.431-3.591,1.628-5.266,2.8-3.878a5.792,5.792,0,0,1,.718,4.165c-.431,3.878-.431,4.74-.048,6.248.479,1.891.479,2.849-.024,6.1a17.707,17.707,0,0,0-.12,5.53c.551,5.769,2.226,8.737,4.955,8.737,1.939,0,4.429-2.537,5.6-5.745a14.837,14.837,0,0,0-.67-11.945c-.934-1.819-.934-2.178-.072-2.178.646.024,1.771.527,3.95,1.771a2.571,2.571,0,0,0,1.724.527c1.1-.287,1.173-.838.479-4.62-.814-4.452-.814-8.354.048-9.192.67-.694,1.364-.5,2.777.742,1.843,1.628,2.322,2.92,2.561,7.086a55.521,55.521,0,0,0,.718,5.841c.455,2.2.694,4.788,1.2,13.286a25.647,25.647,0,0,0,2.059,9.934c3.256,8.713,6.99,13.788,10.7,14.626a4.483,4.483,0,0,0,4.476-1.364c2.418-2.25,3.639-5.817,3.662-10.629a19.531,19.531,0,0,0-4.117-12.663,42.613,42.613,0,0,1-6.272-14.028,18.3,18.3,0,0,1-.455-2.705v-.766l1.867-.024a10.57,10.57,0,0,0,2.681-.287c1.2-.407,1.2-1.221.048-4.141-2.011-5.051-3.591-10.987-3.064-11.514.6-.6,4.093,2.729,8.187,7.828,2.442,3.016,3.639,4.069,5.41,4.692,2.777.981,4.644-.215,4.548-2.873-.072-1.58-.766-3.3-3.064-7.588-3.16-5.913-5.29-10.628-5.075-11.275.048-.144.862.6,1.819,1.628a109.078,109.078,0,0,1,10.724,14.339c2.083,3.423,2.825,4.309,4.046,4.907,1.1.527,1.125.527,3.639-.5.958-.383,1.221-.192,2.49,1.963a49.151,49.151,0,0,0,7.062,8.019c2.9,2.49,5.171,3.639,6.607,3.351,3.567-.718,2.25-6.774-2.729-12.544a2.6,2.6,0,0,1-.91-1.987c0-1.053.048-1.077,1.915-.574,1.771.479,2.944.455,3.615-.072,1.221-1.005.311-3.04-2.968-6.631a18.94,18.94,0,0,1-1.747-2.035c.072,0,1.2.407,2.466.934a43.281,43.281,0,0,0,8.259,2.561c1.077.12,1.364.072,1.939-.383,1.652-1.293.407-2.944-8.091-10.652-6.8-6.176-13.046-12.663-13.046-13.573,0-.359,1.173-.048,5.769,1.508a42.75,42.75,0,0,0,4.835,1.412,1.67,1.67,0,0,0,1.364-1.245,12.922,12.922,0,0,0-1.317-1.724c-1.2-1.388-1.8-2.418-1.8-3.04,0-.479,1.436-.168,3.256.718a64.408,64.408,0,0,1,8.977,5.7,37.464,37.464,0,0,0,13.238,6.3c5.314,1.532,9.456,2.059,11.682,1.436a3.586,3.586,0,0,0,1.484-.981c1.46-1.724.407-4.476-2.968-7.876-5-5.051-12.711-9.671-21.951-13.19-4.931-1.867-7.493-3.639-7.493-5.195,0-.934.79-1.1,4.189-.862,1.7.1,4.309.192,5.769.215,3.04,0,3.686-.287,3.686-1.628,0-1.556-3.615-3.758-9.455-5.793-5.123-1.771-6.8-2.825-5.745-3.615.862-.646,2.154-.862,6.344-1.029,4.6-.168,5.769-.479,6.439-1.724.311-.551.287-.718-.12-1.532-.646-1.341-2.657-2.609-7.3-4.6-4.644-1.963-6.99-3.351-6.368-3.71.742-.407,4.309-.5,7.708-.215,4.117.359,4.668.479,10.174,2.107a214.171,214.171,0,0,0,39.5,7.852c10.2.91,15.56-.024,15.56-2.729,0-4.189-16.038-11.179-48.953-21.329-12.256-3.782-16.661-5.314-16.3-5.673a27.225,27.225,0,0,1,3.83.167c4.261.359,6.176.12,7.517-.862,1.293-1.005.958-2.729-.742-3.591-1.388-.742-2.2-.862-6.511-1.053-4.4-.192-6.391-.575-7.181-1.365-.359-.359-.359-.407,0-.766.311-.311,1.077-.383,4.74-.431a45.245,45.245,0,0,0,5.554-.311c3.734-.838,4.476-3.088,1.819-5.578a7.762,7.762,0,0,0-4.6-2.3c-3.016-.5-5.937-.144-10.413,1.293-3.16,1.005-4.093,1.077-4.309.263a2.532,2.532,0,0,1,.646-2.609c.934-.694,2.274-.862,6.679-.886a49.533,49.533,0,0,0,16.158-2.418c4.859-1.508,6.391-2.968,4.788-4.572-.646-.646-1.532-1.029-4.692-1.963-5.123-1.532-3.806-2.466,4.452-3.136,11.73-.958,19.7-2.585,25.063-5.123,3.351-1.58,5.171-3.662,4.907-5.6a2.9,2.9,0,0,0-1.2-1.987c-1.987-1.8-5.769-2.513-10.652-2.035a43.781,43.781,0,0,0-9.5,2.107c-.383.215-2.466,1.556-4.62,2.992-4.572,3.088-6.894,4.261-8.354,4.261-1.221,0-1.317-.144-1.843-2.753-.67-3.3-1.676-4.668-3.351-4.668a29.452,29.452,0,0,0-4.62,1.819c-4.069,1.843-7.971,3.3-8.211,3.04a33.373,33.373,0,0,1,3.4-3.519,34.089,34.089,0,0,0,3.9-4.165,3.958,3.958,0,0,0,.311-1.771c-.1-1.388-.958-1.987-2.777-1.963-1.173,0-1.8.215-4.357,1.484a21.453,21.453,0,0,1-3.423,1.484c-.718,0,.742-1.819,4.022-4.979,3.543-3.447,5.314-4.788,8.306-6.3a111.7,111.7,0,0,0,16.733-10.461c8.235-6.559,11.107-12.735,6.846-14.65-3.854-1.771-11.634,1.8-19.557,8.953-1.484,1.341-3.28,2.538-3.782,2.538-.551,0-1.963-1.7-2.226-2.681a4.347,4.347,0,0,0-.79-1.556c-.551-.622-.575-.646-2.154-.407-1.005.144-1.58.167-1.58.024a15.937,15.937,0,0,1,2.13-2.442,15.056,15.056,0,0,0,3.088-4.117,20.438,20.438,0,0,1,5.6-6.655c1.221-1.029,3.782-3.423,5.7-5.266a39.578,39.578,0,0,1,7.349-5.937c4.764-3.16,5.793-4.022,8.091-6.87,4.333-5.386,6.463-9.647,6.008-12.017a3.34,3.34,0,0,0-.862-1.508c-1.963-1.891-6.87-.383-12.95,3.95a45.049,45.049,0,0,0-9.384,9.216c-3.71,4.62-5.745,6.918-7.181,8.067a8.592,8.592,0,0,1-1.317.91,6.211,6.211,0,0,1-.168-2.035c0-1.891-.048-2.059-.67-2.681a1.93,1.93,0,0,0-1.8-.646c-2.992.048-7.349,4.046-12.137,11.107-2.92,4.285-3.71,4.955-4.524,3.782-.551-.766-.455-1.365.359-2.585a2.305,2.305,0,0,0,.574-2.154c-.287-2.011-1.293-2.753-2.8-2.131-1.771.718-5.027,4.764-10.317,12.807a37.637,37.637,0,0,1-4.476,5.937c-1.556,1.412-2.992,2.3-3.83,2.3-.407,0-.479-.144-.479-.981,0-1.245,1.1-4.524,2.466-7.445.6-1.221,2.154-4.548,3.519-7.373,11.682-24.584,17.092-41.365,13.884-43.088A1.808,1.808,0,0,0,287.26-1202.5Z" transform="translate(-65.981 1221.385)" fill="#f2eee7"></path><path d="M258.023-1137.458a4.964,4.964,0,0,0-1.867,3.806c-.192,2.537,1.6,5.362,5.171,8.163.886.694,2.561,2.059,3.758,3.04,2.633,2.178,4.548,3.136,6.3,3.136,1.029,0,1.388-.12,1.843-.6.934-.91.766-1.7-1.221-5.7-2.849-5.673-4.572-8.139-7.086-10.126C262.117-1137.937,259.627-1138.535,258.023-1137.458Z" transform="translate(-194.855 1171.977)" fill="#f2eee7"></path><path d="M3.391-1011.539c-1.891.622-3.064,2.3-3.256,4.74-.215,2.7,1.293,4.812,4.62,6.487,4.5,2.226,16.086,5.578,21.353,6.152a3.55,3.55,0,0,0,2.561-.359c1.412-.67,1.6-1.269.694-2.2-1.2-1.245-7.923-6.942-10.724-9.049-5.051-3.806-9.192-5.721-12.687-5.889A10.571,10.571,0,0,0,3.391-1011.539Z" transform="translate(-0.116 1075.908)" fill="#f2eee7"></path><path d="M199.509-311.924a39.512,39.512,0,0,0-7.708,5.386,14.548,14.548,0,0,0-3.471,6.2c-.335,1.987.934,2.825,2.92,1.939,3.4-1.508,6.679-5.075,10.1-11.083C203.53-313.265,203.1-313.863,199.509-311.924Z" transform="translate(-143.234 544.482)" fill="#f2eee7"></path><path d="M392.324-197.387c-2.466,1.221-7.205,6.631-9.1,10.389a6.582,6.582,0,0,0,.694,7.54c2.2,2.92,5.41,3.016,6.559.168a27.7,27.7,0,0,0,.862-3.3,89.331,89.331,0,0,1,3.423-11.562,16.447,16.447,0,0,0,1.053-3.543C395.6-198.273,393.784-198.105,392.324-197.387Z" transform="translate(-290.855 457.043)" fill="#f2eee7"></path><path d="M279.82-89.571a22.638,22.638,0,0,0-1.963,2.825,73.277,73.277,0,0,1-6.176,8.57C269.359-75.4,269-74.682,269-72.982a4.3,4.3,0,0,0,1.963,3.758,3.707,3.707,0,0,0,2.681.67,4.594,4.594,0,0,0,2.825-.646c2.274-1.364,3.4-3.471,5.434-10.245,1.867-6.248,1.963-8.378.455-10.006A1.988,1.988,0,0,0,279.82-89.571Z" transform="translate(-204.635 374.841)" fill="#f2eee7"></path></g></svg>