<svg xmlns="http://www.w3.org/2000/svg" width="512" height="106" viewBox="0 0 512 106" fill="none"><path d="M5.37 0.25C3.82 0.25 2.57999 0.769988 1.54999 1.79999C0.519988 2.83999 0 4.08 0 5.62V75.58C0 77.13 0.519988 78.37 1.54999 79.4C2.57999 80.43 3.82 80.95 5.37 80.95H52.08C53.63 80.95 54.87 80.54 55.9 79.61C56.83 78.68 57.35 77.44 57.35 75.89C57.35 74.44 56.83 73.3 55.9 72.37C54.87 71.55 53.63 71.03 52.08 71.03H10.75V45.2H40.4C41.85 45.2 43.09 44.79 44.12 43.86C45.15 42.93 45.67 41.69 45.67 40.24C45.67 38.79 45.15 37.66 44.12 36.73C43.09 35.8 41.85 35.28 40.4 35.28H10.75V10.17H52.08C53.63 10.17 54.87 9.75999 55.9 8.82999C56.83 7.99999 57.35 6.76001 57.35 5.32001C57.35 3.87001 56.83 2.63001 55.9 1.70001C54.87 0.770012 53.63 0.25 52.08 0.25H5.37ZM393.07 0.25C391.52 0.25 390.28 0.770012 389.25 1.70001C388.21 2.73001 387.8 3.96999 387.8 5.51999V75.78C387.8 77.33 388.21 78.57 389.25 79.61C390.28 80.64 391.52 81.05 393.07 81.05C394.62 81.05 395.86 80.64 396.89 79.61C397.82 78.57 398.34 77.33 398.34 75.78V46.65C398.34 44.17 398.96 42 400.3 39.93C401.65 37.97 403.51 36.42 405.88 35.18C408.26 34.04 410.94 33.42 413.84 33.42C418.8 33.42 422.72 34.87 425.72 37.76C428.72 40.65 430.27 44.79 430.27 50.37V75.78C430.27 77.33 430.68 78.57 431.71 79.61C432.75 80.64 433.99 81.05 435.54 81.05C436.98 81.05 438.22 80.64 439.26 79.61C440.29 78.57 440.81 77.33 440.81 75.78V50.37C440.81 44.79 439.67 40.03 437.6 36.11C435.43 32.18 432.44 29.08 428.72 27.01C424.89 24.95 420.66 23.91 415.9 23.91C412.39 23.91 409.19 24.53 406.19 25.77C403.09 27.01 400.51 28.67 398.34 30.84V5.51999C398.34 3.96999 397.82 2.73001 396.89 1.70001C395.86 0.770012 394.62 0.25 393.07 0.25ZM346.8 6.45001C345.35 6.45001 344.11 6.97 343.08 8C342.04 9.04 341.63 10.17 341.63 11.62V59.77C341.63 65.66 343.7 70.62 347.83 74.75C351.96 78.88 356.92 80.95 362.81 80.95C364.26 80.95 365.4 80.54 366.43 79.5C367.46 78.47 367.98 77.23 367.98 75.78C367.98 74.34 367.46 73.2 366.43 72.17C365.4 71.13 364.26 70.62 362.81 70.62C359.82 70.62 357.23 69.58 355.17 67.41C353 65.35 351.96 62.76 351.96 59.77V35.49H361.16C362.4 35.49 363.54 35.07 364.47 34.14C365.29 33.32 365.81 32.18 365.81 30.84C365.81 29.6 365.29 28.46 364.47 27.53C363.54 26.7 362.4 26.19 361.16 26.19H351.96V11.62C351.96 10.17 351.45 9.04 350.41 8C349.38 6.97 348.24 6.45001 346.8 6.45001ZM100.81 22.57C94.61 22.57 89.34 24.74 85 29.08C80.66 33.52 78.49 38.79 78.49 44.99V75.99C78.49 77.44 78.9 78.57 79.94 79.61C80.97 80.64 82.21 81.16 83.66 81.16C85 81.16 86.24 80.64 87.27 79.61C88.31 78.57 88.82 77.44 88.82 75.99V44.99C88.82 41.69 89.96 38.79 92.34 36.42C94.71 34.04 97.5 32.9 100.81 32.9C104.22 32.9 107.01 34.04 109.38 36.42C111.76 38.79 112.9 41.69 112.9 44.99V75.99C112.9 77.44 113.42 78.57 114.45 79.61C115.48 80.64 116.62 81.16 118.06 81.16C119.51 81.16 120.75 80.64 121.68 79.61C122.71 78.57 123.23 77.44 123.23 75.99V44.99C123.23 42.82 123.75 40.76 124.88 38.9C125.92 37.04 127.36 35.59 129.22 34.56C131.08 33.42 133.15 32.9 135.32 32.9C138.63 32.9 141.52 34.04 143.79 36.42C146.17 38.79 147.41 41.69 147.41 44.99V75.99C147.41 77.44 147.82 78.57 148.86 79.61C149.89 80.64 151.13 81.16 152.57 81.16C153.92 81.16 155.16 80.64 156.19 79.61C157.22 78.57 157.74 77.44 157.74 75.99V44.99C157.74 38.79 155.47 33.52 151.13 29.08C146.79 24.74 141.52 22.57 135.32 22.57C129.12 22.57 123.85 24.74 119.51 29.08C119 29.6 118.58 30.11 118.06 30.63C117.65 30.11 117.13 29.6 116.72 29.08C112.28 24.74 107.01 22.57 100.81 22.57ZM211.05 24.12C203.09 24.12 196.38 26.91 190.8 32.49C185.22 38.07 182.43 44.89 182.43 52.74V100.27C182.43 101.72 182.84 102.85 183.88 103.78C184.81 104.82 185.94 105.23 187.39 105.23C188.73 105.23 189.87 104.82 190.8 103.78C191.83 102.85 192.35 101.72 192.35 100.27V74.44C197.62 79.09 203.92 81.47 211.05 81.47C219.01 81.47 225.72 78.68 231.3 73.1C236.88 67.41 239.78 60.7 239.78 52.74C239.78 44.89 236.88 38.07 231.3 32.49C225.72 26.91 219.01 24.12 211.05 24.12ZM462.4 24.43C461.58 24.43 460.96 24.64 460.34 24.84C459.41 25.26 458.68 25.88 458.17 26.6C457.55 27.43 457.34 28.25 457.34 29.08C457.34 29.91 457.44 30.63 457.86 31.25L481.11 75.37L470.77 98.62C470.36 99.44 470.15 100.27 470.15 101.1C470.15 102.96 471.19 104.3 473.25 105.13C474.18 105.54 475.01 105.75 475.73 105.75C477.59 105.75 478.94 104.71 479.76 102.54L511.38 31.46C511.79 30.53 512 29.7 512 28.98C512 27.12 510.86 25.77 508.8 24.95C507.97 24.64 507.14 24.43 506.32 24.43C504.46 24.43 503.11 25.46 502.29 27.43L485.65 64.93L466.74 27.32C465.71 25.46 464.26 24.43 462.4 24.43ZM315.4 24.83C315.35 24.83 314.93 24.86 314.47 24.9C314.01 24.93 313.2 25 312.67 25.04C312.14 25.09 311.16 25.18 310.49 25.25C309.82 25.31 308.78 25.42 308.18 25.49C307.58 25.56 306.91 25.63 306.7 25.66C306.48 25.69 305.86 25.76 305.33 25.83C304.8 25.89 304.16 25.98 303.92 26.01C303.67 26.04 303.15 26.11 302.77 26.17C302.38 26.22 301.71 26.32 301.27 26.38C300.83 26.45 300.12 26.56 299.69 26.62C299.26 26.69 298.46 26.82 297.91 26.91C297.37 27.01 296.56 27.15 296.12 27.23C295.67 27.31 294.96 27.44 294.54 27.52C294.13 27.6 293.49 27.73 293.13 27.8C292.77 27.87 292.1 28.01 291.63 28.11C291.17 28.21 290.44 28.38 290 28.47C289.57 28.57 288.76 28.77 288.21 28.91C287.65 29.04 286.9 29.24 286.55 29.33C286.2 29.42 285.58 29.59 285.19 29.71C284.79 29.82 284.24 29.98 283.98 30.06C283.71 30.14 283.21 30.29 282.85 30.4C282.5 30.52 281.94 30.7 281.6 30.82C281.26 30.93 280.68 31.13 280.32 31.27C279.95 31.4 279.32 31.64 278.9 31.8C278.49 31.97 277.91 32.21 277.62 32.33C277.32 32.46 276.86 32.67 276.59 32.79C276.32 32.92 275.89 33.12 275.63 33.25C275.37 33.38 275.02 33.57 274.85 33.66C274.67 33.75 274.33 33.94 274.09 34.08C273.84 34.22 273.46 34.45 273.25 34.58C273.04 34.71 272.77 34.88 272.65 34.96C272.53 35.05 272.26 35.23 272.04 35.39C271.83 35.54 271.53 35.77 271.37 35.89C271.21 36.02 270.97 36.22 270.83 36.34C270.69 36.46 270.4 36.73 270.19 36.94C269.98 37.14 269.68 37.45 269.54 37.62C269.39 37.78 269.18 38.02 269.07 38.15C268.97 38.27 268.77 38.51 268.63 38.68C268.5 38.84 268.25 39.17 268.07 39.41C267.9 39.65 267.6 40.07 267.41 40.35C267.22 40.63 266.96 41.02 266.85 41.21C266.73 41.41 266.52 41.76 266.38 42C266.24 42.24 266.02 42.66 265.87 42.94C265.73 43.22 265.53 43.63 265.43 43.85C265.32 44.06 265.17 44.42 265.08 44.63C264.99 44.84 264.84 45.21 264.75 45.44C264.66 45.67 264.51 46.08 264.42 46.34C264.33 46.61 264.18 47.06 264.1 47.36C264.01 47.65 263.88 48.13 263.81 48.41C263.74 48.7 263.64 49.14 263.58 49.39C263.53 49.64 263.45 50.08 263.4 50.36C263.35 50.64 263.28 51.12 263.24 51.43C263.2 51.74 263.15 52.2 263.13 52.45C263.11 52.69 263.09 53.08 263.07 53.31C263.06 53.55 263.05 54.13 263.05 54.61C263.05 55.09 263.06 55.68 263.07 55.92C263.09 56.17 263.11 56.57 263.13 56.82C263.15 57.06 263.2 57.52 263.24 57.83C263.28 58.14 263.35 58.59 263.39 58.83C263.43 59.07 263.49 59.41 263.52 59.58C263.56 59.75 263.63 60.11 263.69 60.37C263.75 60.63 263.83 60.94 263.86 61.07C263.89 61.19 263.96 61.45 264.02 61.64C264.07 61.82 264.16 62.13 264.22 62.32C264.28 62.52 264.4 62.88 264.49 63.12C264.58 63.37 264.73 63.77 264.83 64.03C264.93 64.28 265.09 64.67 265.19 64.9C265.29 65.12 265.5 65.58 265.67 65.91C265.83 66.24 266.09 66.73 266.23 66.99C266.38 67.25 266.58 67.6 266.68 67.77C266.79 67.94 267 68.28 267.15 68.51C267.3 68.74 267.51 69.06 267.62 69.21C267.73 69.36 267.93 69.63 268.06 69.81C268.19 69.99 268.44 70.31 268.61 70.52C268.78 70.74 268.91 70.91 268.9 70.92C268.89 70.93 268.56 71.18 268.17 71.47C267.78 71.76 267.23 72.16 266.96 72.36C266.69 72.56 266.3 72.84 266.1 72.98C265.9 73.13 265.44 73.43 265.07 73.67C264.71 73.91 264.3 74.17 264.16 74.26C264.02 74.35 263.75 74.51 263.55 74.62C263.36 74.74 263.08 74.9 262.93 74.98C262.77 75.06 262.21 75.36 261.68 75.64C261.15 75.92 260.43 76.3 260.08 76.49C259.72 76.67 259.36 76.87 259.27 76.93C259.17 76.99 259.02 77.12 258.92 77.23C258.82 77.33 258.7 77.47 258.66 77.55C258.61 77.62 258.54 77.77 258.49 77.87C258.45 77.97 258.4 78.15 258.38 78.25C258.35 78.35 258.34 78.54 258.34 78.66C258.34 78.79 258.35 78.98 258.38 79.08C258.4 79.18 258.44 79.34 258.47 79.42C258.51 79.51 258.57 79.66 258.63 79.74C258.68 79.83 258.78 79.97 258.85 80.04C258.92 80.12 259.17 80.35 259.4 80.56C259.63 80.77 259.89 80.99 259.97 81.05C260.05 81.12 260.19 81.21 260.28 81.25C260.37 81.3 260.53 81.36 260.62 81.38C260.72 81.41 260.9 81.44 261.06 81.45C261.22 81.46 261.4 81.45 261.52 81.43C261.63 81.42 261.8 81.38 261.9 81.34C262 81.31 262.74 80.95 263.54 80.54C264.34 80.14 265.24 79.68 265.55 79.52C265.85 79.36 266.39 79.06 266.74 78.87C267.09 78.67 267.59 78.39 267.84 78.24C268.09 78.09 268.56 77.8 268.88 77.61C269.2 77.41 269.59 77.16 269.75 77.05C269.91 76.94 270.18 76.76 270.34 76.64C270.51 76.52 271.03 76.14 271.49 75.8C271.96 75.46 272.44 75.11 272.56 75.02C272.68 74.93 272.8 74.85 272.82 74.85C272.84 74.84 272.97 74.92 273.11 75.04C273.26 75.15 273.53 75.35 273.72 75.49C273.92 75.63 274.26 75.87 274.48 76.02C274.7 76.16 275.04 76.38 275.23 76.5C275.42 76.62 275.77 76.83 276.01 76.96C276.24 77.1 276.76 77.37 277.14 77.57C277.53 77.76 278.01 77.99 278.22 78.08C278.42 78.17 278.81 78.34 279.09 78.45C279.36 78.56 279.74 78.7 279.93 78.77C280.12 78.84 280.5 78.97 280.76 79.05C281.03 79.14 281.42 79.26 281.63 79.32C281.85 79.38 282.21 79.48 282.45 79.54C282.68 79.59 283.08 79.68 283.33 79.74C283.58 79.79 284.01 79.87 284.29 79.92C284.57 79.96 284.96 80.03 285.16 80.05C285.36 80.08 285.74 80.12 285.99 80.15C286.25 80.17 286.66 80.21 286.89 80.23C287.16 80.25 287.76 80.26 288.6 80.26C289.61 80.26 290.01 80.25 290.41 80.21C290.7 80.19 291.13 80.15 291.37 80.12C291.61 80.1 291.92 80.06 292.07 80.04C292.21 80.02 292.56 79.96 292.84 79.92C293.12 79.87 293.55 79.79 293.79 79.74C294.04 79.69 294.4 79.61 294.6 79.56C294.8 79.51 295.14 79.42 295.36 79.36C295.58 79.3 295.94 79.2 296.17 79.12C296.4 79.05 296.75 78.94 296.95 78.87C297.15 78.8 297.47 78.69 297.66 78.61C297.85 78.54 298.13 78.43 298.28 78.37C298.42 78.31 298.75 78.17 299.01 78.05C299.27 77.94 299.75 77.71 300.06 77.55C300.38 77.39 300.8 77.18 300.98 77.07C301.17 76.97 301.52 76.76 301.77 76.62C302.01 76.47 302.45 76.19 302.74 75.99C303.04 75.8 303.45 75.51 303.66 75.36C303.87 75.2 304.18 74.97 304.33 74.85C304.48 74.73 304.76 74.51 304.95 74.35C305.14 74.19 305.46 73.91 305.67 73.72C305.88 73.53 306.24 73.19 306.47 72.96C306.7 72.74 307.05 72.38 307.25 72.17C307.45 71.96 307.69 71.68 307.8 71.55C307.9 71.42 308.08 71.21 308.18 71.07C308.29 70.93 308.5 70.63 308.66 70.4C308.81 70.18 309.03 69.84 309.14 69.65C309.25 69.47 309.43 69.16 309.54 68.96C309.65 68.77 309.83 68.42 309.95 68.19C310.06 67.96 310.22 67.63 310.3 67.46C310.38 67.28 310.51 66.98 310.6 66.78C310.69 66.58 310.83 66.23 310.92 66.01C311.01 65.78 311.17 65.36 311.28 65.07C311.38 64.77 311.55 64.3 311.64 64.02C311.74 63.73 311.89 63.27 311.97 62.99C312.06 62.71 312.2 62.23 312.29 61.91C312.38 61.6 312.54 60.96 312.66 60.5C312.78 60.04 312.95 59.31 313.04 58.89C313.14 58.48 313.28 57.78 313.37 57.35C313.46 56.92 313.58 56.26 313.65 55.9C313.71 55.53 313.81 55.01 313.85 54.73C313.9 54.45 313.98 53.98 314.02 53.68C314.07 53.38 314.16 52.79 314.22 52.37C314.28 51.95 314.37 51.23 314.43 50.75C314.49 50.28 314.59 49.51 314.64 49.04C314.69 48.57 314.77 47.8 314.82 47.32C314.87 46.85 314.94 46.09 314.98 45.63C315.02 45.17 315.08 44.44 315.11 44C315.14 43.57 315.19 42.87 315.22 42.47C315.25 42.06 315.29 41.35 315.32 40.88C315.34 40.4 315.38 39.67 315.4 39.26C315.42 38.84 315.45 38.06 315.47 37.53C315.49 37 315.52 36.19 315.53 35.74C315.55 35.29 315.57 34.22 315.59 33.35C315.6 32.38 315.61 30.78 315.6 29.17C315.59 27.74 315.57 26.18 315.56 25.71C315.54 25.24 315.52 24.84 315.52 24.84C315.51 24.83 315.46 24.83 315.4 24.83ZM211.05 34.04C216.22 34.04 220.66 35.9 224.28 39.52C228 43.24 229.86 47.58 229.86 52.74C229.86 57.91 228 62.35 224.28 66.07C220.66 69.69 216.22 71.55 211.05 71.55C205.88 71.55 201.44 69.69 197.83 66.07C194.11 62.35 192.35 57.91 192.35 52.74C192.35 49.44 193.17 46.23 194.83 43.34C196.48 40.45 198.76 38.17 201.65 36.52C204.54 34.87 207.64 34.04 211.05 34.04ZM290.69 40.66H290.98L291.27 40.67L291.43 40.75C291.53 40.8 291.64 40.88 291.72 40.96C291.79 41.03 291.87 41.16 291.91 41.24C291.95 41.34 292.26 42.47 292.71 44.18C293.11 45.72 293.44 46.98 293.44 46.98C293.45 46.98 294.65 45.65 296.12 44.01C297.59 42.37 298.84 41 298.89 40.97C298.94 40.93 299.04 40.88 299.11 40.85C299.19 40.82 299.32 40.79 299.44 40.79C299.58 40.78 299.67 40.78 299.78 40.81C299.85 40.84 299.96 40.88 300.02 40.91C300.07 40.95 300.17 41.03 300.23 41.09C300.29 41.16 300.37 41.26 300.39 41.32C300.42 41.38 300.45 41.5 300.46 41.58C300.48 41.68 300.48 41.76 300.45 41.89C300.43 41.98 300.38 42.12 300.34 42.2C300.28 42.31 299.56 43.12 297.51 45.36C296 47.02 294.77 48.38 294.78 48.39C294.79 48.4 296.37 48.81 298.29 49.3C300.68 49.92 301.83 50.23 301.93 50.28C302.02 50.32 302.13 50.4 302.2 50.48C302.27 50.55 302.36 50.68 302.4 50.77C302.47 50.91 302.48 50.97 302.49 51.17C302.49 51.29 302.48 51.44 302.47 51.49C302.45 51.55 302.41 51.65 302.37 51.71C302.32 51.77 302.23 51.87 302.17 51.92C302.1 51.97 301.98 52.03 301.9 52.06C301.81 52.09 301.66 52.12 301.53 52.12L301.3 52.13L299.53 51.7C298.56 51.46 297.51 51.2 297.19 51.12C296.87 51.04 295.84 50.78 294.9 50.55C293.95 50.32 293.18 50.13 293.17 50.14C293.16 50.15 292.2 51.21 291.04 52.48C289.89 53.76 288.94 54.81 288.94 54.81C288.94 54.82 289.55 55.08 290.3 55.38C291.05 55.68 292.38 56.22 293.25 56.58C294.13 56.93 295.61 57.54 296.55 57.92C297.49 58.3 298.3 58.63 298.35 58.67C298.4 58.71 298.48 58.79 298.53 58.85C298.58 58.91 298.64 59.02 298.66 59.08C298.68 59.14 298.71 59.28 298.72 59.37C298.72 59.47 298.72 59.61 298.7 59.7C298.68 59.78 298.64 59.9 298.61 59.95C298.58 60.01 298.49 60.11 298.42 60.18C298.35 60.25 298.23 60.34 298.15 60.38L298.01 60.45H297.76H297.5L296.4 60C295.8 59.75 294.02 59.03 292.46 58.39C290.89 57.75 289.14 57.04 288.57 56.81C287.76 56.48 287.52 56.39 287.5 56.41C287.49 56.43 286.15 57.91 284.52 59.7C282.89 61.49 281.56 62.97 281.55 62.98C281.55 62.99 281.61 63.01 281.68 63.03C281.75 63.05 284.76 63.88 288.37 64.86C292.17 65.9 295 66.68 295.07 66.71C295.14 66.75 295.25 66.83 295.31 66.89C295.38 66.96 295.46 67.06 295.49 67.12C295.53 67.19 295.58 67.31 295.6 67.38C295.62 67.46 295.63 67.59 295.63 67.68C295.63 67.76 295.62 67.88 295.6 67.94C295.58 68.01 295.52 68.11 295.47 68.18C295.43 68.24 295.32 68.33 295.24 68.38C295.17 68.44 295.03 68.5 294.95 68.52C294.84 68.55 294.73 68.56 294.55 68.55L294.32 68.54L293.21 68.22C292.59 68.05 289.92 67.29 287.26 66.54C284.6 65.79 281.97 65.04 281.4 64.88C280.84 64.72 280.29 64.57 280.18 64.54C280.07 64.5 279.8 64.39 279.58 64.28C279.36 64.17 279.13 64.04 279.07 63.99C279.01 63.95 278.95 63.89 278.94 63.87C278.93 63.85 278.85 63.6 278.76 63.31C278.67 63.03 278.27 61.76 277.86 60.5C277.46 59.24 276.59 56.54 275.93 54.51C275.28 52.48 274.71 50.72 274.68 50.61C274.63 50.46 274.61 50.35 274.61 50.23C274.61 50.07 274.62 50.03 274.71 49.84C274.77 49.73 274.85 49.59 274.9 49.54C274.95 49.49 275.04 49.42 275.1 49.38C275.16 49.34 275.3 49.28 275.42 49.24L275.63 49.16L275.78 49.19C275.86 49.2 275.99 49.24 276.07 49.29C276.15 49.33 276.26 49.42 276.33 49.49C276.4 49.56 276.49 49.69 276.53 49.77C276.56 49.85 277.43 52.51 278.45 55.66C279.47 58.82 280.31 61.41 280.32 61.41C280.33 61.41 281.65 59.95 283.27 58.18C284.88 56.4 286.22 54.92 286.25 54.88L286.31 54.81L284.51 49.31L282.7 43.81V43.63V43.45L282.8 43.22C282.88 43.06 282.94 42.97 283.02 42.89C283.09 42.83 283.19 42.76 283.26 42.73C283.32 42.7 283.45 42.65 283.54 42.62C283.66 42.57 283.74 42.56 283.84 42.57C283.91 42.58 284.04 42.62 284.12 42.66C284.22 42.7 284.33 42.78 284.39 42.85C284.46 42.92 284.54 43.03 284.59 43.11C284.63 43.19 285.37 45.41 286.26 48.1C287.14 50.76 287.87 52.95 287.88 52.96C287.89 52.97 288.83 51.94 289.97 50.68L292.05 48.38L292.03 48.32C292.02 48.28 291.56 46.8 291.02 45.02C290.47 43.24 290.02 41.73 290.01 41.66C290 41.58 290.01 41.48 290.04 41.38C290.06 41.3 290.11 41.17 290.15 41.11C290.19 41.05 290.28 40.95 290.35 40.88C290.42 40.82 290.52 40.75 290.58 40.72L290.69 40.66Z" fill="white"></path></svg>